<?xml version="1.0" encoding="UTF-8"?>
<svg width="64" height="64" viewBox="0 0 64 64" xmlns="http://www.w3.org/2000/svg">
  <!-- Battery body -->
  <rect x="12" y="20" width="32" height="20" rx="2" ry="2" fill="#4CAF50" stroke="#2E7D32" stroke-width="2"/>
  
  <!-- Battery terminal -->
  <rect x="44" y="26" width="4" height="8" rx="1" ry="1" fill="#2E7D32"/>
  
  <!-- Battery level indicator -->
  <rect x="16" y="24" width="24" height="12" rx="1" ry="1" fill="#81C784"/>
  
  <!-- Bluetooth symbol -->
  <g transform="translate(24, 8)">
    <path d="M8 2 L12 6 L8 10 L8 6 L4 10 L2 8 L6 4 L2 0 L4 -2 L8 2 L8 -2 Z" 
          fill="#2196F3" stroke="#1976D2" stroke-width="1"/>
  </g>
  
  <!-- Signal waves -->
  <g transform="translate(48, 12)" opacity="0.7">
    <path d="M0 8 Q4 4 8 8 Q4 12 0 8" fill="none" stroke="#2196F3" stroke-width="1.5"/>
    <path d="M2 8 Q4 6 6 8 Q4 10 2 8" fill="none" stroke="#2196F3" stroke-width="1"/>
  </g>
</svg> 